<?xml version="1.0" encoding="utf-8"?>
<!-- Generator: Adobe Illustrator 19.0.0, SVG Export Plug-In . SVG Version: 6.00 Build 0)  -->
<svg version="1.1" id="Layer_1" xmlns="http://www.w3.org/2000/svg" xmlns:xlink="http://www.w3.org/1999/xlink" x="0px" y="0px"
	 viewBox="0 0 60 30" style="enable-background:new 0 0 60 30;" xml:space="preserve">
<style type="text/css">
	.st0{fill:none;stroke:#0072B7;stroke-miterlimit:10;}
	.st1{fill:#005CA7;}
	.st2{fill:none;stroke:#C6C6C6;stroke-miterlimit:10;}
	.st3{fill:#C6C6C6;}
</style>
<g id="XMLID_67_">
	<rect id="XMLID_40_" x="31.7" y="5" class="st0" width="26.7" height="20"/>
	<rect id="XMLID_39_" x="41" y="10.4" class="st1" width="2.7" height="1.3"/>
	<rect id="XMLID_38_" x="46.3" y="10.4" class="st1" width="2.7" height="1.3"/>
	<rect id="XMLID_37_" x="51.7" y="10.4" class="st1" width="2.7" height="1.3"/>
	<rect id="XMLID_36_" x="35.7" y="14.4" class="st1" width="2.7" height="1.3"/>
	<rect id="XMLID_35_" x="41" y="14.4" class="st1" width="2.7" height="1.3"/>
	<rect id="XMLID_34_" x="46.3" y="14.4" class="st1" width="2.7" height="1.3"/>
	<rect id="XMLID_33_" x="51.7" y="14.4" class="st1" width="2.7" height="1.3"/>
	<rect id="XMLID_32_" x="35.7" y="18.4" class="st1" width="2.7" height="1.3"/>
	<rect id="XMLID_31_" x="41" y="18.4" class="st1" width="2.7" height="1.3"/>
	<rect id="XMLID_30_" x="46.3" y="18.4" class="st1" width="2.7" height="1.3"/>
	<rect id="XMLID_29_" x="51.7" y="18.4" class="st1" width="2.7" height="1.3"/>
</g>
<g id="XMLID_16_">
	<rect id="XMLID_28_" x="1.7" y="5" class="st2" width="26.7" height="20"/>
	<rect id="XMLID_27_" x="11" y="10.4" class="st3" width="2.7" height="1.3"/>
	<rect id="XMLID_26_" x="16.3" y="10.4" class="st3" width="2.7" height="1.3"/>
	<rect id="XMLID_25_" x="21.7" y="10.4" class="st3" width="2.7" height="1.3"/>
	<rect id="XMLID_24_" x="5.7" y="14.4" class="st3" width="2.7" height="1.3"/>
	<rect id="XMLID_23_" x="11" y="14.4" class="st3" width="2.7" height="1.3"/>
	<rect id="XMLID_22_" x="16.3" y="14.4" class="st3" width="2.7" height="1.3"/>
	<rect id="XMLID_21_" x="21.7" y="14.4" class="st3" width="2.7" height="1.3"/>
	<rect id="XMLID_20_" x="5.7" y="18.4" class="st3" width="2.7" height="1.3"/>
	<rect id="XMLID_19_" x="11" y="18.4" class="st3" width="2.7" height="1.3"/>
	<rect id="XMLID_18_" x="16.3" y="18.4" class="st3" width="2.7" height="1.3"/>
	<rect id="XMLID_17_" x="21.7" y="18.4" class="st3" width="2.7" height="1.3"/>
</g>
</svg>
